<svg width="162" height="191" viewBox="0 0 162 191" fill="none" xmlns="http://www.w3.org/2000/svg">
    <path d="M74.9616 117.536H89.9767L102.214 191H62.5312L74.9616 117.536Z" fill="#414141"/>
    <path d="M73.9643 117.536H91.3098L98.8512 170.734H66.4229L73.9643 117.536Z" fill="#616161"/>
    <path fill-rule="evenodd" clip-rule="evenodd" d="M22.9804 73.816C22.9804 59.2149 34.8169 47.3784 49.418 47.3784H55.0383C69.6394 47.3784 81.4759 59.2149 81.4759 73.816C81.4759 74.9253 81.4076 76.0185 81.2749 77.0919C93.3132 79.5639 102.367 90.2191 102.367 102.989C102.367 117.59 90.5301 129.426 75.9291 129.426H70.3088C62.7863 129.426 55.9976 126.285 51.1833 121.242C46.369 126.285 39.5804 129.426 32.0579 129.426H26.4376C11.8365 129.426 0 117.59 0 102.989C0 89.5037 10.0962 78.3768 23.1419 76.7546C23.0352 75.7897 22.9804 74.8093 22.9804 73.816Z" fill="#ADADAD"/>
    <path fill-rule="evenodd" clip-rule="evenodd" d="M89.1897 150.3C79.0278 160.967 61.1233 162.601 49.1991 153.948C37.2748 145.296 35.8462 129.634 46.0081 118.967L46.3925 118.564C47.2217 117.693 48.1025 116.883 49.0274 116.133C42.2218 107.272 42.7074 95.0526 51.1013 86.2414L51.4857 85.8379C61.6477 75.1707 79.5521 73.5375 91.4764 82.1899C97.9249 86.8691 101.304 93.5981 101.44 100.479C109.216 99.3395 117.414 101.011 123.862 105.69C135.787 114.342 137.215 130.004 127.053 140.671L126.669 141.074C117.817 150.366 103.091 152.804 91.5596 147.559C90.9557 148.36 90.294 149.141 89.5741 149.897L89.1897 150.3Z" fill="#B0B0B0"/>
    <path fill-rule="evenodd" clip-rule="evenodd" d="M81.7307 65.6012C81.7307 50.8379 93.6987 38.8699 108.462 38.8699H114.145C128.908 38.8699 140.876 50.8379 140.876 65.6012C140.876 66.7226 140.807 67.8279 140.673 68.913C152.846 71.4121 162 82.1859 162 95.0978C162 109.861 150.032 121.829 135.269 121.829H129.586C121.98 121.829 115.115 118.652 110.248 113.553C105.38 118.652 98.5155 121.829 90.9092 121.829H85.2264C70.4631 121.829 58.4951 109.861 58.4951 95.0979C58.4951 81.4631 68.7034 70.2126 81.8939 68.5722C81.7861 67.5967 81.7307 66.6054 81.7307 65.6012Z" fill="#ABABAB"/>
    <path fill-rule="evenodd" clip-rule="evenodd" d="M66.7958 26.778C72.1048 15.5857 85.8532 9.92487 97.5037 14.1342L100.153 15.0913C111.803 19.3006 116.944 31.7862 111.635 42.9785C111.209 43.8754 110.73 44.7368 110.201 45.5605C118.481 51.0388 121.582 61.5554 117.042 71.1264C111.733 82.3187 97.9849 87.9795 86.3344 83.7701L83.6855 82.813C77.5624 80.6007 73.2373 76.1024 71.2824 70.7072C65.5301 73.3178 58.8274 73.8318 52.7043 71.6195L50.0554 70.6625C38.4049 66.4531 33.264 53.9676 38.573 42.7753C43.3642 32.6746 55.0288 27.079 65.8218 29.1775C66.0947 28.3734 66.4189 27.5724 66.7958 26.778Z" fill="#DCDCDC"/>
    <path fill-rule="evenodd" clip-rule="evenodd" d="M6.89724 85.5457C2.61268 90.2443 0 96.4939 0 103.354C0 117.955 11.8365 129.791 26.4376 129.791H32.0579C34.9791 129.791 37.7897 129.318 40.4169 128.443C37.2959 137.661 40.3713 147.908 49.199 154.313C61.1232 162.966 79.0277 161.332 89.1896 150.665L89.574 150.262C90.2939 149.506 90.9556 148.725 91.5595 147.924C103.091 153.168 117.817 150.731 126.669 141.439L127.053 141.036C132.294 135.535 134.452 128.705 133.678 122.194H135.269C150.032 122.194 162 110.226 162 95.4628C162 88.6226 159.431 82.3825 155.205 77.6548C150.31 83.131 143.192 86.5781 135.269 86.5781H133.678C134.452 93.0894 132.294 99.9188 127.053 105.42L126.669 105.823C117.817 115.115 103.091 117.552 91.5595 112.308C90.9556 113.109 90.2939 113.89 89.574 114.646L89.1896 115.049C79.0277 125.716 61.1232 127.35 49.199 118.697C40.3712 112.292 37.2958 102.045 40.417 92.8263C37.7897 93.7013 34.9791 94.1751 32.0579 94.1751H26.4376C18.6964 94.1751 11.7323 90.848 6.89724 85.5457Z" fill="#898989"/>
</svg>
