<svg width="162" height="191" viewBox="0 0 162 191" fill="none" xmlns="http://www.w3.org/2000/svg">
    <path d="M74.9616 117.388H89.9767L102.214 190.852H62.5312L74.9616 117.388Z" fill="#154202"/>
    <path d="M73.9638 117.388H91.3093L98.8508 170.586H66.4224L73.9638 117.388Z" fill="#295703"/>
    <path fill-rule="evenodd" clip-rule="evenodd" d="M22.9804 73.668C22.9804 59.067 34.8169 47.2305 49.418 47.2305H55.0383C69.6394 47.2305 81.4759 59.067 81.4759 73.668C81.4759 74.7773 81.4076 75.8706 81.2749 76.944C93.3132 79.416 102.367 90.0711 102.367 102.841C102.367 117.442 90.5301 129.278 75.9291 129.278H70.3088C62.7863 129.278 55.9976 126.137 51.1833 121.094C46.369 126.137 39.5804 129.278 32.0579 129.278H26.4376C11.8365 129.278 0 117.442 0 102.841C0 89.3558 10.0962 78.2289 23.1419 76.6066C23.0352 75.6418 22.9804 74.6613 22.9804 73.668Z" fill="#4D7F48"/>
    <path fill-rule="evenodd" clip-rule="evenodd" d="M89.1897 150.152C79.0278 160.82 61.1233 162.453 49.1991 153.8C37.2748 145.148 35.8462 129.486 46.0081 118.819L46.3925 118.416C47.2217 117.545 48.1025 116.735 49.0274 115.985C42.2218 107.124 42.7074 94.9047 51.1013 86.0934L51.4857 85.6899C61.6477 75.0228 79.5521 73.3895 91.4764 82.042C97.9249 86.7211 101.304 93.4502 101.44 100.331C109.216 99.1915 117.414 100.863 123.862 105.542C135.787 114.194 137.215 129.856 127.053 140.523L126.669 140.927C117.817 150.218 103.091 152.656 91.5596 147.411C90.9557 148.213 90.294 148.993 89.5741 149.749L89.1897 150.152Z" fill="#5D8354"/>
    <path fill-rule="evenodd" clip-rule="evenodd" d="M81.7307 65.4533C81.7307 50.69 93.6987 38.7219 108.462 38.7219H114.145C128.908 38.7219 140.876 50.69 140.876 65.4533C140.876 66.5747 140.807 67.68 140.673 68.7651C152.846 71.2642 162 82.0379 162 94.9499C162 109.713 150.032 121.681 135.269 121.681H129.586C121.98 121.681 115.115 118.504 110.248 113.405C105.38 118.504 98.5155 121.681 90.9092 121.681H85.2264C70.4631 121.681 58.4951 109.713 58.4951 94.9499C58.4951 81.3151 68.7034 70.0646 81.8939 68.4243C81.7861 67.4488 81.7307 66.4575 81.7307 65.4533Z" fill="#5E8951"/>
    <path fill-rule="evenodd" clip-rule="evenodd" d="M66.7953 26.63C72.1043 15.4377 85.8527 9.77692 97.5032 13.9863L100.152 14.9433C111.803 19.1527 116.943 31.6382 111.634 42.8305C111.209 43.7275 110.729 44.5889 110.201 45.4125C118.48 50.8909 121.582 61.4075 117.042 70.9784C111.733 82.1707 97.9844 87.8315 86.3339 83.6222L83.685 82.6651C77.5619 80.4528 73.2369 75.9544 71.282 70.5592C65.5296 73.1698 58.8269 73.6839 52.7038 71.4716L50.0549 70.5145C38.4044 66.3051 33.2636 53.8196 38.5725 42.6273C43.3637 32.5267 55.0283 26.9311 65.8213 29.0295C66.0943 28.2255 66.4184 27.4245 66.7953 26.63Z" fill="#96C78F"/>
    <path fill-rule="evenodd" clip-rule="evenodd" d="M6.89724 85.3977C2.61268 90.0963 0 96.346 0 103.206C0 117.807 11.8365 129.643 26.4376 129.643H32.0579C34.9791 129.643 37.7897 129.17 40.4169 128.295C37.2959 137.513 40.3713 147.76 49.199 154.165C61.1232 162.818 79.0277 161.184 89.1896 150.517L89.574 150.114C90.2939 149.358 90.9556 148.577 91.5595 147.776C103.091 153.02 117.817 150.583 126.669 141.291L127.053 140.888C132.294 135.387 134.452 128.557 133.678 122.046H135.269C150.032 122.046 162 110.078 162 95.3148C162 88.4747 159.431 82.2346 155.205 77.5068C150.31 82.9831 143.192 86.4302 135.269 86.4302H133.678C134.452 92.9415 132.294 99.7709 127.053 105.272L126.669 105.675C117.817 114.967 103.091 117.404 91.5595 112.16C90.9556 112.961 90.2939 113.742 89.574 114.498L89.1896 114.901C79.0277 125.568 61.1232 127.202 49.199 118.549C40.3712 112.144 37.2958 101.897 40.417 92.6784C37.7897 93.5533 34.9791 94.0271 32.0579 94.0271H26.4376C18.6964 94.0271 11.7323 90.7 6.89724 85.3977Z" fill="#477632"/>
</svg>
